<svg width="20" height="16" viewBox="0 0 20 16" fill="none" xmlns="http://www.w3.org/2000/svg">
<path fill-rule="evenodd" clip-rule="evenodd" d="M1.00119 7.09191C-0.417001 5.39295 -0.328536 2.86171 1.26659 1.26659C2.86171 -0.328536 5.39295 -0.417001 7.09191 1.00119L7.10452 0.988581L9.89567 3.77974L12.6867 0.988749L12.6998 1.00187C14.3987 -0.416845 16.9304 -0.328547 18.5257 1.26676C20.121 2.86208 20.2093 5.39373 18.7906 7.09269L18.8023 7.10437L18.592 7.31469C18.5702 7.33743 18.5481 7.36 18.5257 7.38239C18.5033 7.40477 18.4808 7.42686 18.458 7.44865L9.90683 15.9998L9.89551 15.9885L9.88435 15.9997L1.29806 7.41337L1.26659 7.38221L1.23543 7.35074L0.988895 7.1042L1.00119 7.09191Z" fill="#FF5A9F"/>
</svg>
